<?xml version="1.0" encoding="UTF-8"?><svg id="Layer_2" xmlns="http://www.w3.org/2000/svg" viewBox="0 0 583 61.57"><defs><style>.cls-1{fill:#e0dfd9;}</style></defs><g><path class="cls-1" d="m215.4,27.06h-3.26V2.88h3.26v24.18Z"/><path class="cls-1" d="m230.4,21.51c0,3.41-2.79,6.08-6.54,6.08s-6.51-2.67-6.51-6.08,2.79-6.08,6.51-6.08,6.54,2.67,6.54,6.08Zm-9.67,0c0,1.86,1.33,3.29,3.13,3.29s3.16-1.46,3.16-3.29-1.36-3.29-3.16-3.29-3.13,1.46-3.13,3.29Z"/><path class="cls-1" d="m240.14,26.41c-.71.62-1.98,1.15-3.69,1.15-2.76,0-4.74-1.43-4.74-3.84,0-2.23,1.92-3.88,4.87-3.88,1.46,0,2.57.37,3.35.9v-.03c0-1.64-1.15-2.42-3.22-2.42-.65,0-1.4.06-2.51.37l-.59-2.54c1.58-.37,2.51-.5,3.94-.5,3.75,0,5.64,2.02,5.64,4.56v6.88h-3.04v-.65Zm-.19-2.76c0-1.12-.99-1.89-2.48-1.89s-2.36.81-2.36,1.89.87,1.89,2.36,1.89,2.48-.78,2.48-1.89Z"/><path class="cls-1" d="m254.86,25.45c-.99,1.21-2.48,1.98-4.34,1.98-3.07,0-5.43-2.54-5.43-5.89s2.36-5.95,5.43-5.95c1.71,0,3.16.74,4.15,1.89V2.88h3.26v24.18h-3.07v-1.61Zm-3.29-7.04c-1.77,0-3.07,1.3-3.07,3.1s1.3,3.1,3.07,3.1,3.13-1.33,3.13-3.07-1.36-3.13-3.13-3.13Z"/><path class="cls-1" d="m263.73,13.89h-3.38v-3.1h3.38v3.1Zm-.06,13.18h-3.26v-11.1h3.26v11.1Z"/><path class="cls-1" d="m269.4,27.06h-3.26v-11.1h3.07v1.4c.68-.81,1.92-1.67,3.66-1.67,2.26,0,3.97,1.55,3.97,4.09v7.29h-3.26v-6.26c0-1.61-.9-2.23-2.08-2.23-.99,0-2.11.74-2.11,2.02v6.48Z"/><path class="cls-1" d="m285.08,33.26c-1.21,0-2.45-.12-3.78-.37v-2.91c1.46.31,2.57.43,3.69.43,1.92,0,3.26-.65,3.26-3.07v-1.58c-.96,1.02-2.29,1.67-3.81,1.67-2.95,0-5.71-2.26-5.71-5.89s2.73-5.95,5.71-5.95c1.55,0,2.91.68,3.91,1.74v-1.36h3.16v11.29c0,4.25-2.11,6.02-6.42,6.02Zm3.32-11.75c0-1.77-1.46-3.1-3.1-3.1-1.83,0-3.16,1.33-3.16,3.1s1.33,3.1,3.16,3.1c1.64,0,3.1-1.36,3.1-3.1Z"/><path class="cls-1" d="m303.13,18.69v8.37h-3.22v-8.37h-1.3v-2.73h1.3v-7.81c0-3.88,2.67-5.3,5.08-5.3v2.85c-.99,0-1.86.77-1.86,2.57v7.69h1.3v2.73h-1.3Z"/><path class="cls-1" d="m313.91,25.67c-.68.81-1.92,1.67-3.66,1.67-2.26,0-3.97-1.55-3.97-4.09v-7.29h3.26v6.26c0,1.61.9,2.23,2.08,2.23.99,0,2.11-.74,2.11-2.02v-6.48h3.26v11.1h-3.07v-1.4Z"/><path class="cls-1" d="m322.66,27.06h-3.26v-11.1h3.1v2.42c.37-.87,1.55-2.48,3.19-2.48h.37v3.72c-.12-.06-.4-.09-.62-.09-1.71,0-2.79,1.12-2.79,1.95v5.58Z"/><path class="cls-1" d="m338.53,33.23h-3.35l2.17-5.83-5.12-11.44h3.69l3.01,7.63,2.7-7.63h3.41l-6.51,17.27Z"/><path class="cls-1" d="m358.4,21.51c0,3.41-2.79,6.08-6.54,6.08s-6.51-2.67-6.51-6.08,2.79-6.08,6.51-6.08,6.54,2.67,6.54,6.08Zm-9.67,0c0,1.86,1.33,3.29,3.13,3.29s3.16-1.46,3.16-3.29-1.36-3.29-3.16-3.29-3.13,1.46-3.13,3.29Z"/><path class="cls-1" d="m367.85,25.67c-.68.81-1.92,1.67-3.66,1.67-2.26,0-3.97-1.55-3.97-4.09v-7.29h3.26v6.26c0,1.61.9,2.23,2.08,2.23.99,0,2.11-.74,2.11-2.02v-6.48h3.26v11.1h-3.07v-1.4Z"/></g><rect class="cls-1" x="47.5" y="42.44" width="150.06" height="19.13"/><rect class="cls-1" x="215.92" y="42.44" width="86.13" height="19.13"/><rect class="cls-1" x="320.4" y="42.44" width="106.7" height="19.13"/><rect class="cls-1" x="447.1" y="42.44" width="88.4" height="19.13"/></svg>