<?xml version="1.0" encoding="UTF-8"?>
<svg id="Layer_2" xmlns="http://www.w3.org/2000/svg" viewBox="0 0 583 91">
  <defs>
    <style>
      .cls-1{fill:#FFFFFF;opacity:.32;}
    </style>
  </defs>
  <path class="cls-1" d="m146.5,56.12l-4.76,14.77h-6.93l-8.61-25.06h7.77l4.41,15.47,4.83-15.47h6.65l4.83,15.54,4.41-15.54h7.42l-8.4,25.06h-6.79l-4.83-14.77Z"/>
  <path class="cls-1" d="m186.33,69.42c-1.61,1.4-4.48,2.59-8.33,2.59-6.23,0-10.71-3.22-10.71-8.68,0-5.04,4.34-8.75,10.99-8.75,3.29,0,5.81.84,7.56,2.03v-.07c0-3.71-2.59-5.46-7.28-5.46-1.47,0-3.15.14-5.67.84l-1.33-5.74c3.57-.84,5.67-1.12,8.89-1.12,8.47,0,12.74,4.55,12.74,10.29v15.54h-6.86v-1.47Zm-.42-6.23c0-2.52-2.24-4.27-5.6-4.27s-5.32,1.82-5.32,4.27,1.96,4.27,5.32,4.27,5.6-1.75,5.6-4.27Z"/>
  <path class="cls-1" d="m205.93,67.46v17.36h-7.35v-38.99h6.93v3.64c2.24-2.73,5.6-4.48,9.8-4.48,6.93,0,12.25,5.74,12.25,13.3s-5.32,13.44-12.25,13.44c-3.85,0-7.14-1.68-9.38-4.27Zm7-2.1c3.99,0,6.93-2.94,6.93-7s-2.94-7-6.93-7-7.07,3.01-7.07,6.93,3.08,7.07,7.07,7.07Z"/>
  <path class="cls-1" d="m260.6,71.73c-4.2,0-7.56-1.75-9.8-4.48v3.64h-6.93V16.29h7.35v32.97c2.24-2.59,5.53-4.27,9.38-4.27,6.93,0,12.25,5.95,12.25,13.44s-5.32,13.3-12.25,13.3Zm-2.38-6.37c3.99,0,6.93-3.08,6.93-7s-2.94-7-6.93-7-7.07,3.01-7.07,7.07,3.08,6.93,7.07,6.93Z"/>
  <path class="cls-1" d="m294.62,69.42c-1.61,1.4-4.48,2.59-8.33,2.59-6.23,0-10.71-3.22-10.71-8.68,0-5.04,4.34-8.75,10.99-8.75,3.29,0,5.81.84,7.56,2.03v-.07c0-3.71-2.59-5.46-7.28-5.46-1.47,0-3.15.14-5.67.84l-1.33-5.74c3.57-.84,5.67-1.12,8.89-1.12,8.47,0,12.74,4.55,12.74,10.29v15.54h-6.86v-1.47Zm-.42-6.23c0-2.52-2.24-4.27-5.6-4.27s-5.32,1.82-5.32,4.27,1.96,4.27,5.32,4.27,5.6-1.75,5.6-4.27Z"/>
  <path class="cls-1" d="m314.22,70.89h-7.35v-25.06h7v5.46c.84-1.96,3.5-5.6,7.21-5.6h.84v8.4c-.28-.14-.91-.21-1.4-.21-3.85,0-6.3,2.52-6.3,4.41v12.6Z"/>
  <path class="cls-1" d="m347.4,51.99v18.9h-7.28v-18.9h-2.94v-6.16h2.94v-13.93l7.28-3.43v17.36h2.94v6.16h-2.94Z"/>
  <path class="cls-1" d="m361.82,70.89h-7.35V16.29h7.35v32.34c1.54-1.75,4.2-3.43,7.84-3.43,5.11,0,8.96,3.5,8.96,9.24v16.45h-7.35v-14.14c0-3.64-2.03-5.04-4.69-5.04-2.24,0-4.76,1.75-4.76,4.62v14.56Z"/>
  <path class="cls-1" d="m391.57,41.14h-7.63v-7h7.63v7Zm-.14,29.75h-7.35v-25.06h7.35v25.06Z"/>
  <path class="cls-1" d="m404.38,70.89h-7.35v-25.06h6.93v3.15c1.54-1.82,4.34-3.78,8.26-3.78,5.11,0,8.96,3.5,8.96,9.24v16.45h-7.35v-14.14c0-3.64-2.03-5.04-4.69-5.04-2.24,0-4.76,1.68-4.76,4.55v14.63Z"/>
  <path class="cls-1" d="m439.8,84.89c-2.73,0-5.53-.28-8.54-.84v-6.58c3.29.7,5.81.98,8.33.98,4.34,0,7.35-1.47,7.35-6.93v-3.57c-2.17,2.31-5.18,3.78-8.61,3.78-6.65,0-12.88-5.11-12.88-13.3s6.16-13.44,12.88-13.44c3.5,0,6.58,1.54,8.82,3.92v-3.08h7.14v25.48c0,9.59-4.76,13.58-14.49,13.58Zm7.49-26.53c0-3.99-3.29-7-7-7-4.13,0-7.14,3.01-7.14,7s3.01,7,7.14,7c3.71,0,7-3.08,7-7Z"/>
</svg>
